<svg style="background-color: white; padding: 3em" xmlns="http://www.w3.org/2000/svg" width="360.3778381347656" height="253.36563110351562" viewBox="-183.77822875976562 -142.41738891601562 360.3778381347656 253.36563110351562"><title>Neo4j Graph Visualization</title><desc>Created using Neo4j (http://www.neo4j.com/)</desc><g class="layer relationships"><g class="relationship" transform="translate(-24.378226560294376 81.94822155492756) rotate(347.2654371860215)"><path class="b-outline" fill="#FFC454" stroke="none" d="M 25 1 L 63.60274721486397 1 L 63.60274721486397 -1 L 25 -1 Z M 104.71212221486397 1 L 143.31486942972793 1 L 143.31486942972793 4 L 151.31486942972793 0 L 143.31486942972793 -4 L 143.31486942972793 -1 L 104.71212221486397 -1 Z"/><text text-anchor="middle" pointer-events="none" font-size="8px" fill="#000000" x="84.15743471486397" y="3" font-family="Helvetica Neue, Helvetica, Arial, sans-serif">AFFIRMS</text></g><g class="relationship" transform="translate(-24.378226560294376 81.94822155492756) rotate(301.65059302476953)"><path class="b-outline" fill="#FFC454" stroke="none" d="M 25 1 L 39.60914496878915 1 L 39.60914496878915 -1 L 25 -1 Z M 80.71851996878915 1 L 95.3276649375783 1 L 95.3276649375783 4 L 103.3276649375783 0 L 95.3276649375783 -4 L 95.3276649375783 -1 L 80.71851996878915 -1 Z"/><text text-anchor="middle" pointer-events="none" font-size="8px" fill="#000000" x="60.16383246878915" y="3" font-family="Helvetica Neue, Helvetica, Arial, sans-serif">AFFIRMS</text></g><g class="relationship" transform="translate(147.5996052014715 43.08231664401921) rotate(250.71180908544358)"><path class="b-outline" fill="#FFC454" stroke="none" d="M 25 1 L 58.34860310006387 1 L 58.34860310006387 -1 L 25 -1 Z M 99.45797810006387 1 L 132.80658120012774 1 L 132.80658120012774 4 L 140.80658120012774 0 L 132.80658120012774 -4 L 132.80658120012774 -1 L 99.45797810006387 -1 Z"/><text text-anchor="middle" pointer-events="none" font-size="8px" fill="#000000" x="78.90329060006387" y="3" transform="rotate(180 78.90329060006387 0)" font-family="Helvetica Neue, Helvetica, Arial, sans-serif">AFFIRMS</text></g><g class="relationship" transform="translate(42.96014862360268 -27.292488878152668) rotate(208.15775948502989)"><path class="b-outline" fill="#FFC454" stroke="none" d="M 25 1 L 36.975614292336935 1 L 36.975614292336935 -1 L 25 -1 Z M 78.08498929233693 1 L 90.06060358467387 1 L 90.06060358467387 4 L 98.06060358467387 0 L 90.06060358467387 -4 L 90.06060358467387 -1 L 78.08498929233693 -1 Z"/><text text-anchor="middle" pointer-events="none" font-size="8px" fill="#000000" x="57.530301792336935" y="3" transform="rotate(180 57.530301792336935 0)" font-family="Helvetica Neue, Helvetica, Arial, sans-serif">AFFIRMS</text></g><g class="relationship" transform="translate(-65.53642868513803 -85.36489942664548) rotate(436.1799270758796)"><path class="b-outline" fill="#FFC454" stroke="none" d="M 25 1 L 61.59587554915247 1 L 61.59587554915247 -1 L 25 -1 Z M 102.70525054915247 1 L 139.30112609830493 1 L 139.30112609830493 4 L 147.30112609830493 0 L 139.30112609830493 -4 L 139.30112609830493 -1 L 102.70525054915247 -1 Z"/><text text-anchor="middle" pointer-events="none" font-size="8px" fill="#000000" x="82.15056304915247" y="3" font-family="Helvetica Neue, Helvetica, Arial, sans-serif">AFFIRMS</text></g><g class="relationship" transform="translate(92.83039829469341 -113.41738413549375) rotate(529.9550440926013)"><path class="b-outline" fill="#FFC454" stroke="none" d="M 25 1 L 55.861408192964404 1 L 55.861408192964404 -1 L 25 -1 Z M 96.9707831929644 1 L 127.83219138592881 1 L 127.83219138592881 4 L 135.8321913859288 0 L 127.83219138592881 -4 L 127.83219138592881 -1 L 96.9707831929644 -1 Z"/><text text-anchor="middle" pointer-events="none" font-size="8px" fill="#000000" x="76.4160956929644" y="3" transform="rotate(180 76.4160956929644 0)" font-family="Helvetica Neue, Helvetica, Arial, sans-serif">AFFIRMS</text></g><g class="relationship" transform="translate(-154.77820818353348 -5.472189377860303) rotate(393.8379798266158)"><path class="b-outline" fill="#FFC454" stroke="none" d="M 25 1 L 53.94130516045146 1 L 53.94130516045146 -1 L 25 -1 Z M 95.05068016045146 1 L 123.99198532090293 1 L 123.99198532090293 4 L 131.99198532090293 0 L 123.99198532090293 -4 L 123.99198532090293 -1 L 95.05068016045146 -1 Z"/><text text-anchor="middle" pointer-events="none" font-size="8px" fill="#000000" x="74.49599266045146" y="3" font-family="Helvetica Neue, Helvetica, Arial, sans-serif">AFFIRMS</text></g></g><g class="layer nodes"><g class="node" aria-label="graph-node0" transform="translate(-24.378226560294376,81.94822155492756)"><circle class="b-outline" cx="0" cy="0" r="25" fill="#4C8EDA" stroke="#2870c2" stroke-width="2px"/><text class="caption" text-anchor="middle" pointer-events="none" x="0" y="5" font-size="10px" fill="#FFFFFF" font-family="Helvetica Neue, Helvetica, Arial, sans-serif"> Alfie</text></g><g class="node" aria-label="graph-node1" transform="translate(147.5996052014715,43.08231664401921)"><circle class="b-outline" cx="0" cy="0" r="25" fill="#4C8EDA" stroke="#2870c2" stroke-width="2px"/><text class="caption" text-anchor="middle" pointer-events="none" x="0" y="5" font-size="10px" fill="#FFFFFF" font-family="Helvetica Neue, Helvetica, Arial, sans-serif"> Betty</text></g><g class="node" aria-label="graph-node2" transform="translate(42.96014862360268,-27.292488878152668)"><circle class="b-outline" cx="0" cy="0" r="25" fill="#4C8EDA" stroke="#2870c2" stroke-width="2px"/><text class="caption" text-anchor="middle" pointer-events="none" x="0" y="5" font-size="10px" fill="#FFFFFF" font-family="Helvetica Neue, Helvetica, Arial, sans-serif"> Charlie</text></g><g class="node" aria-label="graph-node4" transform="translate(92.83039829469341,-113.41738413549375)"><circle class="b-outline" cx="0" cy="0" r="25" fill="#4C8EDA" stroke="#2870c2" stroke-width="2px"/><text class="caption" text-anchor="middle" pointer-events="none" x="0" y="5" font-size="10px" fill="#FFFFFF" font-family="Helvetica Neue, Helvetica, Arial, sans-serif"> Earl</text></g><g class="node" aria-label="graph-node3" transform="translate(-65.53642868513803,-85.36489942664548)"><circle class="b-outline" cx="0" cy="0" r="25" fill="#4C8EDA" stroke="#2870c2" stroke-width="2px"/><text class="caption" text-anchor="middle" pointer-events="none" x="0" y="5" font-size="10px" fill="#FFFFFF" font-family="Helvetica Neue, Helvetica, Arial, sans-serif"> Doris</text></g><g class="node" aria-label="graph-node5" transform="translate(-154.77820818353348,-5.472189377860303)"><circle class="b-outline" cx="0" cy="0" r="25" fill="#4C8EDA" stroke="#2870c2" stroke-width="2px"/><text class="caption" text-anchor="middle" pointer-events="none" x="0" y="5" font-size="10px" fill="#FFFFFF" font-family="Helvetica Neue, Helvetica, Arial, sans-serif"> Freya</text></g></g></svg>