<svg xmlns="http://www.w3.org/2000/svg" viewBox="0 0 860 330" width="860" height="330" role="img" aria-labelledby="t d">
<title id="t">One node's links under M5</title>
<desc id="d">Both outer layers now hold links in the design's colour: the current node draws its k_in senders above and its k_out receivers below, tuning the two counts separately. Grey links are the same two draws made by other nodes that happened to land on this one. Messages flow downward on every link.</desc>
<rect width="860" height="330" rx="8" fill="#fcfcfb"/>
<text x="38.0" y="62.0" font-size="12.5" fill="#1a1a19" font-family="-apple-system,BlinkMacSystemFont,Segoe UI,Helvetica,Arial,sans-serif" font-weight="600">Upstream</text>
<text x="38.0" y="80.0" font-size="10.5" fill="#6f6d66" font-family="-apple-system,BlinkMacSystemFont,Segoe UI,Helvetica,Arial,sans-serif">its k_in senders drawn · grey: their outbound draws</text>
<line x1="38.0" y1="116.0" x2="822.0" y2="116.0" stroke="#e2e0d8" stroke-width="1.2" stroke-dasharray="5 6"/>
<text x="38.0" y="170.0" font-size="12.5" fill="#1a1a19" font-family="-apple-system,BlinkMacSystemFont,Segoe UI,Helvetica,Arial,sans-serif" font-weight="600">Current node</text>
<circle cx="556.0" cy="165.0" r="11.0" fill="#fcfcfb" stroke="#1a1a19" stroke-width="2.2"/>
<line x1="38.0" y1="214.0" x2="822.0" y2="214.0" stroke="#e2e0d8" stroke-width="1.2" stroke-dasharray="5 6"/>
<text x="38.0" y="262.0" font-size="12.5" fill="#1a1a19" font-family="-apple-system,BlinkMacSystemFont,Segoe UI,Helvetica,Arial,sans-serif" font-weight="600">Downstream</text>
<text x="38.0" y="280.0" font-size="10.5" fill="#6f6d66" font-family="-apple-system,BlinkMacSystemFont,Segoe UI,Helvetica,Arial,sans-serif">its k_out receivers drawn · grey: their inbound draws</text>
<circle cx="300.0" cy="72.0" r="4.6" fill="#fcfcfb" stroke="#e2e0d8" stroke-width="1.5"/>
<circle cx="334.1" cy="72.0" r="4.6" fill="#fcfcfb" stroke="#e2e0d8" stroke-width="1.5"/>
<circle cx="368.3" cy="72.0" r="5.2" fill="#e87ba4" stroke="#fcfcfb" stroke-width="1.5"/>
<circle cx="402.4" cy="72.0" r="4.6" fill="#fcfcfb" stroke="#e2e0d8" stroke-width="1.5"/>
<circle cx="436.5" cy="72.0" r="5.2" fill="#6f6d66" stroke="#fcfcfb" stroke-width="1.5"/>
<circle cx="470.7" cy="72.0" r="4.6" fill="#fcfcfb" stroke="#e2e0d8" stroke-width="1.5"/>
<circle cx="504.8" cy="72.0" r="4.6" fill="#fcfcfb" stroke="#e2e0d8" stroke-width="1.5"/>
<circle cx="538.9" cy="72.0" r="5.2" fill="#e87ba4" stroke="#fcfcfb" stroke-width="1.5"/>
<circle cx="573.1" cy="72.0" r="4.6" fill="#fcfcfb" stroke="#e2e0d8" stroke-width="1.5"/>
<circle cx="607.2" cy="72.0" r="5.2" fill="#6f6d66" stroke="#fcfcfb" stroke-width="1.5"/>
<circle cx="641.3" cy="72.0" r="4.6" fill="#fcfcfb" stroke="#e2e0d8" stroke-width="1.5"/>
<circle cx="675.5" cy="72.0" r="4.6" fill="#fcfcfb" stroke="#e2e0d8" stroke-width="1.5"/>
<circle cx="709.6" cy="72.0" r="5.2" fill="#e87ba4" stroke="#fcfcfb" stroke-width="1.5"/>
<circle cx="743.7" cy="72.0" r="4.6" fill="#fcfcfb" stroke="#e2e0d8" stroke-width="1.5"/>
<circle cx="777.9" cy="72.0" r="5.2" fill="#e87ba4" stroke="#fcfcfb" stroke-width="1.5"/>
<circle cx="812.0" cy="72.0" r="4.6" fill="#fcfcfb" stroke="#e2e0d8" stroke-width="1.5"/>
<line x1="379.5" y1="82.0" x2="534.5" y2="144.4" stroke="#e87ba4" stroke-width="1.6" stroke-linecap="round"/>
<polygon points="541.0,147.0 533.2,147.6 535.8,141.1" fill="#e87ba4"/>
<line x1="540.0" y1="82.0" x2="553.1" y2="140.2" stroke="#e87ba4" stroke-width="1.6" stroke-linecap="round"/>
<polygon points="554.6,147.0 549.7,140.9 556.5,139.4" fill="#e87ba4"/>
<line x1="700.4" y1="82.0" x2="574.6" y2="143.9" stroke="#e87ba4" stroke-width="1.6" stroke-linecap="round"/>
<polygon points="568.3,147.0 573.0,140.8 576.1,147.0" fill="#e87ba4"/>
<line x1="764.6" y1="82.0" x2="580.4" y2="144.7" stroke="#e87ba4" stroke-width="1.6" stroke-linecap="round"/>
<polygon points="573.7,147.0 579.2,141.4 581.5,148.1" fill="#e87ba4"/>
<line x1="443.7" y1="82.0" x2="540.5" y2="143.3" stroke="#6f6d66" stroke-width="1.6" stroke-linecap="round"/>
<polygon points="546.4,147.0 538.7,146.2 542.4,140.3" fill="#6f6d66"/>
<line x1="604.1" y1="82.0" x2="564.0" y2="141.2" stroke="#6f6d66" stroke-width="1.6" stroke-linecap="round"/>
<polygon points="560.1,147.0 561.1,139.2 566.9,143.2" fill="#6f6d66"/>
<circle cx="300.0" cy="272.0" r="4.6" fill="#fcfcfb" stroke="#e2e0d8" stroke-width="1.5"/>
<circle cx="334.1" cy="272.0" r="4.6" fill="#fcfcfb" stroke="#e2e0d8" stroke-width="1.5"/>
<circle cx="368.3" cy="272.0" r="4.6" fill="#fcfcfb" stroke="#e2e0d8" stroke-width="1.5"/>
<circle cx="402.4" cy="272.0" r="5.2" fill="#e87ba4" stroke="#fcfcfb" stroke-width="1.5"/>
<circle cx="436.5" cy="272.0" r="4.6" fill="#fcfcfb" stroke="#e2e0d8" stroke-width="1.5"/>
<circle cx="470.7" cy="272.0" r="4.6" fill="#fcfcfb" stroke="#e2e0d8" stroke-width="1.5"/>
<circle cx="504.8" cy="272.0" r="5.2" fill="#6f6d66" stroke="#fcfcfb" stroke-width="1.5"/>
<circle cx="538.9" cy="272.0" r="4.6" fill="#fcfcfb" stroke="#e2e0d8" stroke-width="1.5"/>
<circle cx="573.1" cy="272.0" r="5.2" fill="#e87ba4" stroke="#fcfcfb" stroke-width="1.5"/>
<circle cx="607.2" cy="272.0" r="4.6" fill="#fcfcfb" stroke="#e2e0d8" stroke-width="1.5"/>
<circle cx="641.3" cy="272.0" r="4.6" fill="#fcfcfb" stroke="#e2e0d8" stroke-width="1.5"/>
<circle cx="675.5" cy="272.0" r="5.2" fill="#6f6d66" stroke="#fcfcfb" stroke-width="1.5"/>
<circle cx="709.6" cy="272.0" r="4.6" fill="#fcfcfb" stroke="#e2e0d8" stroke-width="1.5"/>
<circle cx="743.7" cy="272.0" r="5.2" fill="#e87ba4" stroke="#fcfcfb" stroke-width="1.5"/>
<circle cx="777.9" cy="272.0" r="4.6" fill="#fcfcfb" stroke="#e2e0d8" stroke-width="1.5"/>
<circle cx="812.0" cy="272.0" r="4.6" fill="#fcfcfb" stroke="#e2e0d8" stroke-width="1.5"/>
<line x1="543.7" y1="183.0" x2="417.6" y2="258.4" stroke="#e87ba4" stroke-width="1.6" stroke-linecap="round"/>
<polygon points="411.6,262.0 415.8,255.4 419.4,261.4" fill="#e87ba4"/>
<line x1="557.4" y1="183.0" x2="570.8" y2="255.1" stroke="#e87ba4" stroke-width="1.6" stroke-linecap="round"/>
<polygon points="572.0,262.0 567.3,255.8 574.2,254.5" fill="#e87ba4"/>
<line x1="571.0" y1="183.0" x2="726.2" y2="258.9" stroke="#e87ba4" stroke-width="1.6" stroke-linecap="round"/>
<polygon points="732.5,262.0 724.6,262.1 727.7,255.8" fill="#e87ba4"/>
<line x1="551.9" y1="183.0" x2="511.3" y2="255.9" stroke="#6f6d66" stroke-width="1.6" stroke-linecap="round"/>
<polygon points="507.9,262.0 508.2,254.2 514.3,257.6" fill="#6f6d66"/>
<line x1="565.6" y1="183.0" x2="662.7" y2="257.7" stroke="#6f6d66" stroke-width="1.6" stroke-linecap="round"/>
<polygon points="668.3,262.0 660.6,260.5 664.9,255.0" fill="#6f6d66"/>
</svg>
