<?xml version="1.0" encoding="UTF-8" standalone="no"?>
<svg
   xmlns:dc="http://purl.org/dc/elements/1.1/"
   xmlns:cc="http://creativecommons.org/ns#"
   xmlns:rdf="http://www.w3.org/1999/02/22-rdf-syntax-ns#"
   xmlns:svg="http://www.w3.org/2000/svg"
   xmlns="http://www.w3.org/2000/svg"
   xmlns:sodipodi="http://sodipodi.sourceforge.net/DTD/sodipodi-0.dtd"
   xmlns:inkscape="http://www.inkscape.org/namespaces/inkscape"
   inkscape:version="1.0 (4035a4f, 2020-05-01)"
   sodipodi:docname="cardano-black.svg"
   xml:space="preserve"
   enable-background="new -39 -39 128 128"
   viewBox="-39 -39 128 128"
   height="128px"
   width="128px"
   y="0px"
   x="0px"
   id="Layer_1"
   version="1.1"><metadata
   id="metadata21"><rdf:RDF><cc:Work
       rdf:about=""><dc:format>image/svg+xml</dc:format><dc:type
         rdf:resource="http://purl.org/dc/dcmitype/StillImage" /><dc:title></dc:title></cc:Work></rdf:RDF></metadata><defs
   id="defs19" /><sodipodi:namedview
   inkscape:current-layer="g14"
   inkscape:window-maximized="0"
   inkscape:window-y="23"
   inkscape:window-x="0"
   inkscape:cy="64"
   inkscape:cx="16.590174"
   inkscape:zoom="4.0603397"
   showgrid="false"
   id="namedview17"
   inkscape:window-height="762"
   inkscape:window-width="1600"
   inkscape:pageshadow="2"
   inkscape:pageopacity="0"
   guidetolerance="10"
   gridtolerance="10"
   objecttolerance="10"
   borderopacity="1"
   bordercolor="#666666"
   pagecolor="#ffffff" />
<g
   id="g14">
	<g
   style="fill:#000000;fill-opacity:1"
   id="g12">
		<path
   style="fill:#000000;fill-opacity:1"
   id="path10"
   d="M15.527,16.675c-3.048,0-5.795-1.691-7.163-4.408C6.378,8.319,7.97,3.492,11.915,1.502    c1.117-0.56,2.361-0.857,3.6-0.857c3.047,0,5.792,1.69,7.166,4.405c1.99,3.948,0.395,8.777-3.55,10.762    C18.015,16.377,16.766,16.675,15.527,16.675 M6.122,33.055c-0.157,0-0.309-0.005-0.464-0.01c-4.406-0.256-7.794-4.051-7.542-8.459    c0.248-4.395,4.015-7.808,8.456-7.547c4.41,0.245,7.793,4.044,7.544,8.456C13.872,29.738,10.357,33.055,6.122,33.055     M15.586,49.392c-1.561,0-3.078-0.454-4.389-1.312c-1.787-1.171-3.016-2.977-3.45-5.067c-0.438-2.092-0.031-4.236,1.141-6.026    c1.489-2.267,3.997-3.624,6.708-3.624c1.561,0,3.083,0.459,4.389,1.315c1.793,1.173,3.018,2.974,3.453,5.07    c0.441,2.092,0.033,4.23-1.144,6.025C20.812,48.039,18.304,49.392,15.586,49.392 M34.486,49.353c-3.043,0-5.786-1.691-7.158-4.408    c-0.966-1.909-1.125-4.08-0.454-6.117c0.667-2.033,2.095-3.68,4.004-4.647c1.112-0.564,2.361-0.858,3.603-0.858    c3.048,0,5.794,1.69,7.162,4.411c1.985,3.945,0.394,8.773-3.553,10.761C36.979,49.054,35.732,49.353,34.486,49.353 M43.902,32.977    c-0.158,0-0.311-0.011-0.465-0.017c-4.415-0.248-7.796-4.048-7.547-8.454c0.251-4.397,4.02-7.809,8.461-7.55    c2.134,0.123,4.097,1.065,5.521,2.665c1.424,1.595,2.143,3.656,2.016,5.792C51.65,29.654,48.139,32.977,43.902,32.977     M34.406,16.638c-1.558,0-3.076-0.452-4.389-1.315c-3.698-2.426-4.729-7.401-2.305-11.098c1.485-2.264,3.994-3.618,6.704-3.618    c1.562,0,3.082,0.454,4.39,1.312c3.696,2.42,4.731,7.399,2.307,11.095C39.624,15.278,37.121,16.638,34.406,16.638 M7.503-13.113    c0.999,1.974,0.201,4.385-1.771,5.375C3.756-6.74,1.349-7.539,0.357-9.506c-0.999-1.978-0.204-4.384,1.771-5.382    C4.099-15.878,6.512-15.089,7.503-13.113 M-16.752,21.094c2.209,0.125,3.896,2.017,3.772,4.225    c-0.124,2.207-2.02,3.897-4.227,3.775c-2.206-0.132-3.891-2.022-3.77-4.229C-20.852,22.659-18.959,20.969-16.752,21.094     M0.743,59.204c1.215-1.848,3.692-2.366,5.542-1.15c1.85,1.209,2.367,3.69,1.152,5.545c-1.211,1.849-3.693,2.36-5.543,1.153    C0.043,63.535-0.468,61.056,0.743,59.204 M42.503,63.11c-0.998-1.971-0.2-4.376,1.767-5.375c1.983-0.992,4.387-0.197,5.379,1.771    c0.999,1.976,0.201,4.386-1.774,5.377C45.904,65.881,43.496,65.088,42.503,63.11 M66.756,28.903    c-2.213-0.126-3.895-2.018-3.771-4.224c0.125-2.212,2.016-3.899,4.226-3.772c2.206,0.123,3.898,2.015,3.774,4.227    C70.863,27.344,68.962,29.028,66.756,28.903 M49.264-9.209c-1.21,1.85-3.692,2.366-5.543,1.154    c-1.852-1.21-2.366-3.693-1.151-5.543c1.212-1.852,3.694-2.366,5.54-1.155C49.956-13.539,50.476-11.059,49.264-9.209     M-1.252-25.396c0.646,1.278,0.126,2.838-1.146,3.479c-1.279,0.645-2.835,0.134-3.48-1.148c-0.645-1.275-0.129-2.838,1.146-3.478    C-3.453-27.184-1.896-26.672-1.252-25.396 M-31.77,22.538c1.429,0.082,2.523,1.305,2.44,2.731    c-0.084,1.427-1.307,2.526-2.731,2.436c-1.43-0.073-2.524-1.305-2.439-2.728C-34.419,23.549-33.197,22.46-31.77,22.538     M-5.515,72.932c0.785-1.196,2.394-1.532,3.591-0.742c1.195,0.784,1.528,2.387,0.741,3.589c-0.78,1.19-2.39,1.528-3.585,0.745    C-5.966,75.735-6.299,74.128-5.515,72.932 M51.258,75.397c-0.643-1.282-0.129-2.842,1.147-3.48    c1.279-0.644,2.837-0.134,3.477,1.146c0.649,1.278,0.129,2.836-1.145,3.475C53.457,77.186,51.901,76.671,51.258,75.397     M81.772,27.465c-1.429-0.082-2.525-1.309-2.443-2.737c0.085-1.433,1.305-2.523,2.738-2.439c1.426,0.075,2.521,1.306,2.433,2.733    C84.423,26.448,83.197,27.541,81.772,27.465 M55.522-22.936c-0.79,1.198-2.398,1.533-3.589,0.747    c-1.196-0.787-1.529-2.39-0.748-3.588c0.787-1.195,2.393-1.53,3.587-0.741C55.969-25.736,56.304-24.131,55.522-22.936     M-0.468,4.95c2.174,1.422,2.782,4.343,1.354,6.518c-1.422,2.176-4.345,2.787-6.523,1.354c-2.176-1.422-2.782-4.34-1.354-6.52    C-5.562,4.131-2.643,3.52-0.468,4.95 M-5.1,37.032c2.323-1.173,5.156-0.234,6.328,2.087c1.168,2.32,0.235,5.154-2.088,6.326    c-2.32,1.171-5.157,0.232-6.325-2.085C-8.356,41.036-7.424,38.202-5.1,37.032 M20.03,57.084c0.148-2.596,2.376-4.582,4.97-4.439    c2.602,0.148,4.585,2.377,4.437,4.971c-0.146,2.599-2.371,4.587-4.973,4.438C21.868,61.903,19.883,59.68,20.03,57.084     M50.476,45.056c-2.174-1.433-2.78-4.348-1.36-6.525c1.427-2.171,4.347-2.776,6.52-1.354c2.177,1.424,2.782,4.345,1.358,6.519    C55.57,45.874,52.648,46.476,50.476,45.056 M55.105,12.967c-2.324,1.171-5.155,0.239-6.325-2.084    c-1.17-2.321-0.24-5.154,2.084-6.323c2.326-1.174,5.16-0.238,6.335,2.085C58.363,8.966,57.429,11.8,55.105,12.967 M29.641-7.083    C29.492-4.49,27.263-2.5,24.662-2.649c-2.596-0.147-4.583-2.371-4.436-4.97c0.149-2.599,2.371-4.583,4.967-4.438    C27.797-11.908,29.785-9.686,29.641-7.083 M-18.01-3.5c1.525,0.995,1.946,3.042,0.948,4.564c-0.997,1.523-3.04,1.95-4.564,0.947    c-1.523-0.999-1.949-3.045-0.948-4.564C-21.575-4.074-19.532-4.504-18.01-3.5 M-21.188,47.997c1.631-0.821,3.61-0.17,4.43,1.461    c0.819,1.623,0.165,3.606-1.463,4.428c-1.625,0.818-3.607,0.169-4.427-1.458C-23.464,50.805-22.813,48.815-21.188,47.997     M21.487,76.499c0.099-1.819,1.66-3.208,3.477-3.103c1.821,0.1,3.207,1.657,3.104,3.475c-0.1,1.823-1.659,3.215-3.477,3.108    C22.769,79.877,21.382,78.318,21.487,76.499 M68.008,53.501c-1.519-0.996-1.944-3.045-0.945-4.563    c0.998-1.521,3.042-1.952,4.565-0.951c1.519,0.998,1.944,3.045,0.948,4.563C71.578,54.073,69.534,54.501,68.008,53.501     M71.192,2.005c-1.626,0.816-3.612,0.163-4.432-1.466c-0.818-1.625-0.166-3.604,1.463-4.425c1.625-0.819,3.608-0.168,4.427,1.458    C73.469-0.799,72.814,1.185,71.192,2.005 M28.182-26.5c-0.103,1.82-1.661,3.208-3.482,3.104c-1.815-0.103-3.207-1.66-3.104-3.478    c0.104-1.822,1.66-3.212,3.479-3.106C26.896-29.877,28.288-28.316,28.182-26.5"
   fill="#FFFFFF" />
	</g>
</g>
</svg>
